<?xml version="1.0" encoding="UTF-8"?>
<svg id="Capa_2" data-name="Capa 2" xmlns="http://www.w3.org/2000/svg" viewBox="0 0 607.34 409.59">
  <defs>
    <style>
      .cls-1 {
        fill: #4c2818;
        stroke-width: 0px;
      }
    </style>
  </defs>
  <g id="Capa_1-2" data-name="Capa 1">
    <g>
      <path class="cls-1" d="M607.18,210.5c-.39-1.55-.74-3.11-1.11-4.73-.81-3.55-1.64-7.22-2.83-10.85-10.29-31.41-20.82-63.08-30.72-92.83-.83-2.5-2.01-5.12-3.51-7.8-11.77-21.09-30.78-31.95-56.5-32.3-15.45-.2-31-.16-46.03-.11h-2.7c-6.48.03-12.96.05-19.45.04h-.15c-.42,0-.9,0-1.37,0,.06-.43.12-.87.18-1.29.57-3.95,1.15-8.19,1.52-12.43,1.26-14.66-2.16-26.85-9.88-35.26C426.86,4.47,414.92,0,400.09,0,302.67,0,205.24,0,107.82.01h-.2c-3.76-.02-8.02-.03-12.5.93-25.94,5.55-43.78,32.23-38.94,58.24,1.49,7.99,8.45,14.27,16.56,14.92,7.75.62,15.28-4.08,18.32-11.42,1.36-3.29,1.7-6.57,2-9.47.13-1.28.26-2.49.46-3.63,1.89-10.6,4.28-12.6,15.06-12.6,83.01,0,166.01,0,249.02,0h42.87c1.06-.01,2.07-.02,3.04.03,3.76.18,4.33.76,4.29,4.46-.02,2.08-.17,4.23-.43,6.36-1.57,12.75-3.16,25.49-4.75,38.24l-.03.26c-1.76,14.09-3.51,28.18-5.25,42.27-2.75,22.3-5.49,44.61-8.22,66.92l-.07.55c-3.02,24.63-6.04,49.27-9.08,73.9-.14,1.16-.32,2.57-.49,3.55-.94.05-2.29.05-3.59.05H74.87c-1.06,0-2.11,0-3.17-.02h-.27c-2.37-.03-4.82-.05-7.31.07-.11,0-.2,0-.28,0-.06-.11-.14-.27-.23-.48-3.72-8.65-10.85-13.14-19.08-12.03-8.83,1.21-15.08,7.83-16.32,17.28-1.56,11.9-3.19,24.56-4.57,37.03-1.23,11.18,2.29,22.38,9.67,30.73,7.42,8.4,18.18,13.31,29.52,13.47,1.21.02,2.42.05,3.64.09h.21c4.04.12,8.22.25,12.5-.2q3.18-.33,3.8,3.49c3.57,22.1,16.88,37.3,38.5,43.98,5.59,1.73,11.42,2.6,17.34,2.6h.01c28.47,0,54.61-19.42,63.56-47.22.89-2.75.99-2.83,3.82-2.82,69.13.17,136.33.17,199.78-.01,1.39,0,2.01.16,2.22.23.1.2.34.79.55,2.17,4.19,27.89,26.91,47.49,55.23,47.68h.4c27.91,0,54.62-19.47,63.52-46.29,1.32-3.99,2.03-4.07,5.16-3.79,4.68.41,9.32.3,13.81.2,1.58-.04,3.16-.07,4.74-.08,22.55-.18,41.64-16.28,45.4-38.29,1.07-6.24,1.82-12.57,2.55-18.74.34-2.86.68-5.71,1.05-8.57l6.67-51.33.04-31.5-.16-.7ZM561.49,310.39c-.77,9.06-4.32,12.31-13.35,12.36-2.72.01-5.43,0-8.14,0h-.34c-3.52-.01-7.15-.02-10.76.01-.12,0-.22,0-.31,0-1.45-4.34-3.45-8.38-6.08-12.32h11.81c2.33,0,4.66.01,7,.02h1.08c6.25.03,12.71.06,19.1-.07ZM319.95,322.75h-9.61c-37.03,0-70.43,0-104.19.11-3.87.03-4-.42-4.64-2.59-.98-3.31-2.55-6.53-4.79-9.83h45.42c43.85,0,87.69,0,131.54,0,.46,0,.97,0,1.47,0-.07.47-.13.9-.18,1.17-.55,3.57-.81,6.42-1,8.49-.08.88-.17,1.87-.27,2.63-1.34.08-3.46.06-5.52.04h-.64c-1.29-.02-2.73-.03-4.34-.03-14.41.01-28.82.01-43.23,0ZM484.15,364.81c-6.75,5.88-15.02,8.69-22.7,7.72-9.76-1.24-16.69-9.06-16.83-19.01-.13-8.64,4.16-17.43,11.47-23.51,5.6-4.66,12.3-7.22,18.86-7.22,1.66,0,3.3.16,4.9.48,9.91,2,15.3,9.03,15.18,19.81-.09,7.87-4.06,15.78-10.88,21.72ZM511.45,111.77c-2.16.01-4.32.03-6.47.04-19.18.08-32.09,11.37-34.54,30.2l-.56,4.3c-1.89,14.49-3.84,29.48-5.27,44.33-.86,8.87,1.65,17.06,7.07,23.06,5.51,6.1,13.59,9.5,22.75,9.55,29.9.19,52.9.17,74.56-.07.86-.01,1.43.04,1.8.09.05.34.1.89.1,1.75-.07,10.35-1.48,20.89-2.85,31.12-.76,5.68-1.55,11.55-2.11,17.41h-.93s-95.25,0-95.25,0c-17.31,0-34.63,0-51.94,0-.4,0-.76,0-1.07-.01.03-.29.07-.61.11-.98l4.38-35.71c5.43-44.24,11.04-89.99,16.43-135q.39-3.28,3.62-3.22c14.57.26,29.36.23,43.67.2h.29c9.06-.02,17.9-.04,26.51,0,12.11.06,20.01,4.2,24.8,13-8.39-.16-16.87-.11-25.1-.06ZM541.56,186.8h0s0-.5,0-.5c-5.89.02-11.78.01-17.67,0h-.42c-7.07-.02-14.37-.05-21.59.07,1.53-11.83,3.06-24.31,4.54-37.1.03-.22.05-.4.08-.54.15-.01.33-.02.57-.01,13.32.14,26.85.15,41.42,0,.39,0,.65.03.8.06.07.13.18.36.3.75,3.8,11.75,7.8,23.8,12.21,36.81-6.76-.07-13.57-.06-20.17-.04l-.08.5h0ZM410.74,322.66c.09-.44.18-.86.24-1.25.61-3.66.87-6.53,1.07-8.66.07-.77.15-1.6.23-2.26,1.33-.08,3.45-.07,5.68-.06h.14c1.11,0,2.34.01,3.7.01h2.38c-3.07,3.66-5.89,7.66-8.62,12.18-.34.57-.53.89-4.57.16l-.26-.05v-.07ZM169.03,342.33c0,7.77-3.49,15.58-9.57,21.45-6.08,5.87-14.05,9.09-21.86,8.82-11.13-.4-19.12-8.77-19-19.9.09-8.44,4.28-16.69,11.49-22.64,5.67-4.67,12.46-7.25,19.12-7.25,1.55,0,3.09.14,4.58.41,9.55,1.75,15.25,8.89,15.25,19.11ZM97.57,310.43c-2.67,3.49-5.63,7.62-8.11,12.29-.33.01-.72.01-1.02.01h-.18c-2.02,0-4.04.01-6.07.02-5.48.03-11.68.06-17.65-.08-1.77-.04-3.14-.45-3.68-1.09-.46-.55-.59-1.7-.35-3.16.47-2.89.67-5.17.83-6.84.03-.37.07-.75.11-1.12,1.15-.04,2.71-.04,4.23-.03h.48c.75,0,1.56,0,2.44,0,9.28-.02,18.57-.02,27.86-.01h1.13Z"/>
      <path class="cls-1" d="M28.79,123.2h0c3.28.77,6.53.88,9.27.88,24.94.05,49.87.04,73.27.03,1.87,0,3.77.02,5.65.04h.45c1.68.02,3.38.04,5.09.04,4.3,0,7.6-.1,10.7-.33,11.32-.84,18.55-8.73,18-19.64-.53-10.42-8.06-16.91-19.64-16.95-11.2-.04-22.52-.03-34.1-.02h-28.79c-11.79,0-23.99-.02-36,.08-9.65.08-17.34,7.03-18.28,16.51-.88,8.92,5.3,17.25,14.38,19.38Z"/>
      <path class="cls-1" d="M48.35,247.85h1.36c8.3-.01,16.6-.01,24.9,0h1.88c3.34,0,6.71,0,10.1,0,6.02,0,12.1,0,18.12-.05,9.84-.06,16.64-5.37,18.66-14.56,1.17-5.35,0-10.58-3.28-14.72-3.72-4.68-9.8-7.41-16.68-7.49-12.36-.15-24.91-.12-37.05-.09h-1.38c-3.69.01-7.39.02-11.08.02-3.19,0-6.38-.02-9.57-.03-8.35-.05-16.97-.1-25.53.24-5.9.23-10.82,2.33-14.22,6.07-3.26,3.58-4.82,8.31-4.53,13.68.57,10.38,8.11,16.86,19.69,16.91,9.54.04,19.24.03,28.63.02Z"/>
      <path class="cls-1" d="M57.98,149.1c-11.55.07-19.41,7.36-19.57,18.12-.08,5.35,1.89,10.17,5.54,13.57,3.56,3.32,8.45,5.12,14.13,5.2,3.44.05,6.92.06,10.3.06,2.79,0,5.5,0,8.06-.02,2.64,0,5.28-.02,7.91-.02,1.73.02,3.47.02,5.2.02,1.05,0,2.11,0,3.16,0,2.71,0,5.46.02,8.23.02,4.23,0,7.68-.02,10.85-.07,11.38-.16,19.44-7.62,19.6-18.14.08-4.99-1.7-9.6-5-12.97-3.61-3.69-8.86-5.74-14.78-5.77-18.31-.11-36.35-.11-53.62,0Z"/>
    </g>
  </g>
</svg>