<?xml version="1.0" encoding="UTF-8"?>
<svg id="Capa_2" data-name="Capa 2" xmlns="http://www.w3.org/2000/svg" viewBox="0 0 409.91 409.59">
  <defs>
    <style>
      .cls-1 {
        fill: #4c2818;
        stroke-width: 0px;
      }
    </style>
  </defs>
  <g id="Capa_1-2" data-name="Capa 1">
    <g>
      <path class="cls-1" d="M408.84,11.94c-5.14-8.74-11.37-11.24-15.69-11.8-4.34-.56-11.04.29-18.31,7.53-6.82,6.79-13.64,13.6-20.46,20.41l-7.73,7.72c-13.43-3.85-27.11-7.14-40.36-10.32-7.26-1.74-14.74-3.54-22.07-5.4-8.53-2.18-17.2-4.28-25.58-6.33-5.94-1.44-11.87-2.89-17.8-4.36-16.17-4.02-30.9.02-42.63,11.7-26.06,25.95-52.11,51.91-78.16,77.88-35.63,35.51-71.25,71.02-106.9,106.5-6.02,5.98-10.21,13.16-12.84,21.95l-.33,1.08v15.88l.21.89c2.17,9.04,6.94,16.99,15.02,25.01,41.67,41.4,83.41,83.08,124.08,123.83,5.2,5.22,13.48,12.47,25.34,15.27l.88.2h15.76l.97-.26c11.39-3.01,19.47-10.05,25.24-15.83,64.94-65.09,123.89-124,180.2-180.09,13.04-12.99,17.36-28.55,12.84-46.25-5.95-23.3-11.8-47.06-17.46-70.03-2.3-9.35-4.6-18.71-6.92-28.05-.09-.67-.31-1.99-1.12-3.41-.93-1.62-1.15-2,2.58-5.4,5.93-5.38,11.56-11.12,17.02-16.65,2.57-2.62,5.23-5.31,7.85-7.92,2.96-2.93,5.04-5.69,6.56-8.67l.84-1.64v-11.64l-1.07-1.81ZM306.34,122.32c.09,4.92-1.75,9.57-5.19,13.09-3.52,3.62-8.29,5.64-13.41,5.69h-.2c-5.12,0-9.8-1.84-13.19-5.18-3.42-3.37-5.31-8.06-5.33-13.2-.05-10.53,8.03-18.83,18.39-18.89h.11c10.03,0,18.64,8.45,18.82,18.5ZM300.54,81.85c-3.88-1.27-8.14-1.86-14.07-1.98h-.26c-21.55,0-40.1,17.8-41.37,39.72-1.36,23.16,14.99,42.72,38.02,45.5,1.64.2,3.25.3,4.87.3,20.16,0,38.42-15.02,41.93-35.41,1.21-7.07.78-13.89-1.32-20.33,4.72-4.65,9.36-9.27,13.89-13.8,2.93,11.88,5.86,23.76,8.8,35.64,3.88,15.69,7.76,31.37,11.61,47.05.53,2.15.39,3.74-1.85,5.98-44,43.91-88.68,88.59-131.89,131.8-17.28,17.28-34.55,34.55-51.83,51.82-3.37,3.36-4.46,3.37-7.8.03-42.59-42.48-85.16-84.97-127.74-127.48-1.9-1.9-2.57-3.29-2.57-3.96s.64-1.97,2.44-3.77c16.62-16.56,33.25-33.13,49.87-49.68,43.97-43.8,89.44-89.09,134.1-133.68,1.5-1.49,2.75-2.16,4.35-2.16.62,0,1.27.1,2.01.28,11,2.69,22,5.41,33,8.11,16.52,4.07,33.06,8.13,49.59,12.18-4.29,4.25-8.82,8.79-13.8,13.83Z"/>
      <path class="cls-1" d="M156.29,219.36c-16.55,1.85-33.12,3.61-49.66,5.52-6.43.74-10.79,5.76-10.76,11.98.03,7.05,6.02,12.53,13.24,11.79,16.06-1.65,32.11-3.43,48.15-5.2,22.28-2.46,44.56-4.96,66.84-7.46,10.82-1.22,21.64-2.42,32.44-3.78,4.55-.58,7.77-3.21,9.42-7.52,3.41-8.81-3.45-16.93-13.8-15.98-12.37,1.14-24.71,2.68-37.05,4.05-19.61,2.19-39.22,4.4-58.82,6.58Z"/>
      <path class="cls-1" d="M173.2,206.67c19.25-.13,35.05-15.96,35.06-35.12,0-19.18-15.85-35.1-35.01-35.15-19.15-.04-35.2,15.81-35.31,34.9-.12,19.21,16.12,35.48,35.26,35.37ZM172.92,160.65c6.25-.11,10.99,4.48,11.06,10.71.07,6.27-4.5,11.01-10.71,11.1-6.13.09-11.07-4.67-11.16-10.75-.11-6.1,4.64-10.96,10.82-11.06Z"/>
      <path class="cls-1" d="M189.47,250.85c-19.59,0-34.89,15.24-34.92,34.79-.03,19.54,15.3,34.99,34.73,35.02,19.68.03,35.22-15.45,35.21-35.04-.03-19.41-15.49-34.78-35.02-34.77ZM189.43,296.53c-6.19-.02-11.13-4.87-11.09-10.86.05-5.84,5.3-11.09,11.11-11.06,6.04.03,10.83,4.92,10.84,11.1,0,6.38-4.48,10.85-10.86,10.82Z"/>
    </g>
  </g>
</svg>