<?xml version="1.0" encoding="UTF-8"?>
<svg id="Capa_2" data-name="Capa 2" xmlns="http://www.w3.org/2000/svg" viewBox="0 0 415.12 415.11">
  <defs>
    <style>
      .cls-1 {
        fill: #f5f5f5;
        stroke-width: 0px;
      }
    </style>
  </defs>
  <g id="Capa_1-2" data-name="Capa 1">
    <path class="cls-1" d="M415.08,49.99c-.01-22.45-15.39-42.41-37.4-48.53-1.14-.32-2.29-.63-3.43-.93l-1.58-.43-.39-.1H42.6l-.32.07C26.05,3.64,13.88,12.3,6.12,25.82,3.13,31.02,1.57,36.52.1,42.17l-.1.37v329.67l.07.32c3.5,15.94,11.87,27.93,24.86,35.61,7.83,4.63,16.26,6.98,25.06,6.98h35.4s65.55,0,65.55,0h65.56c40.68,0,94.32,0,148.44-.04,13.21,0,25.74-5.28,35.3-14.83,9.55-9.55,14.82-22.09,14.83-35.3.06-93.01.07-193.08,0-314.95ZM376.56,189.21v42.92c0,42.08,0,84.17,0,126.25,0,.43,0,.85,0,1.28.01,1.15.02,2.25-.05,3.3-.43,6.07-3.07,13.32-13.26,13.43-14.81.16-29.55.18-40.73.18-5.81,0-11.63,0-17.44-.01-5.82,0-11.63-.01-17.45-.01-3.66,0-7.31,0-10.97,0-.18,0-.32,0-.43-.02-.03-.19-.06-.52-.06-1.05.04-7.09.03-14.3.02-21.26,0-2.76,0-5.53,0-8.29v-15.84c0-24.79,0-49.58,0-74.37,0-.94,0-1.97.04-2.64.7-.05,1.8-.05,2.8-.05,3.34,0,6.68,0,10.02-.02,3.77,0,7.54-.02,11.32-.02,6.94,0,12.58.03,17.74.1h.22c4.69,0,7.32-2.25,8.04-6.87,2.03-13.07,4.25-27.12,6.76-41.25.3-1.71.53-4.2-1.03-6.06-1.52-1.82-3.92-2.05-5.83-2.05h-.17c-5.47.04-10.83.04-14.9.04-2.33,0-4.65,0-6.98,0-2.33,0-4.66,0-6.99,0-5.61,0-12.26,0-19.04.08h-.16c-1.17,0-1.63-.14-1.77-.2-.05-.14-.19-.59-.16-1.69.14-5.22.12-10.5.09-15.61-.02-3.67-.04-7.46,0-11.18.17-14.65,8.31-22.83,22.92-23.03,4.32-.06,8.96-.11,13.52-.11s8.54.05,12.29.16c.17,0,.34,0,.5,0,1.59,0,3.91-.2,5.6-1.91,1.73-1.76,1.92-4.24,1.9-6.2-.17-12.48-.17-25.65-.01-40.24.02-1.92-.17-4.34-1.87-6.06-1.23-1.25-2.97-1.85-5.31-1.85-.2,0-.41,0-.63.01-2.2.09-4.61.13-7.36.13-2.57,0-5.2-.04-7.75-.07-2.56-.04-5.21-.07-7.83-.07-4.68,0-10.86.1-17.18.92-31.58,4.06-59.72,32-64.07,63.6-.55,3.99-.67,7.96-.79,11.8-.04,1.2-.07,2.4-.12,3.59-.15,3.71-.04,7.43.06,11.03.17,5.72.33,11.15-.47,16.54-2.81.34-5.89.5-9.67.5-2.26,0-4.58-.06-6.82-.11-2.28-.05-4.63-.11-6.96-.11-1.53,0-2.92.02-4.24.07-2.43.09-4.45.13-6.35.13-2.07,0-3.94-.05-5.74-.16-.3-.02-.58-.03-.85-.03-2.21,0-3.86.59-5.06,1.8-1.69,1.71-1.86,4.15-1.84,5.83.16,13.88.16,27.68,0,41.04-.02,1.64.15,4.02,1.82,5.71,1.65,1.68,3.99,1.87,5.61,1.87h.23c4.97-.06,9.87-.07,13.57-.07,2.09,0,4.18,0,6.27,0,2.09,0,4.18,0,6.28,0,5.08,0,8.96-.02,12.6-.06h.13c.83,0,1.22.09,1.38.14.05.16.15.56.15,1.43-.08,37.37-.09,76.81-.01,120.56,0,.81-.08,1.21-.13,1.38-.16.05-.51.12-1.19.12-27.78-.04-56.01-.04-83.31-.04-27,0-54.91,0-82.37-.04-9.76-.01-14.75-5.05-14.84-14.97-.07-7.74-.05-15.61-.04-23.23,0-3.29.01-6.59.01-9.88,0-90.48,0-180.96,0-271.44,0-.48,0-.96,0-1.44-.01-1.24-.02-2.42.05-3.57.52-8.54,5.11-13.15,13.64-13.71.54-.04,1.12-.05,1.89-.05.37,0,.75,0,1.12,0,.39,0,.79,0,1.18,0h151.29s151.29,0,151.29,0c.39,0,.79,0,1.18,0,.37,0,.75,0,1.12,0,.77,0,1.35.02,1.89.05,8.53.56,13.11,5.18,13.63,13.72.06,1.06.05,2.15.04,3.3,0,.44,0,.87,0,1.31v132.6Z"/>
  </g>
</svg>