<svg xmlns="http://www.w3.org/2000/svg" viewBox="0 0 160 160"><defs><style>.cls-1{fill:#1877f2;}.cls-2{fill:#fff;}</style></defs><title>Asset 6</title><g id="Layer_2" data-name="Layer 2"><g id="Layer_1-2" data-name="Layer 1"><path class="cls-1" d="M160,80a80,80,0,1,0-92.5,79V103.12H47.19V80H67.5V62.38c0-20.06,11.94-31.13,30.22-31.13a123.09,123.09,0,0,1,17.9,1.56V52.5H105.54c-9.94,0-13,6.17-13,12.49V80h22.19l-3.55,23.12H92.5V159A80,80,0,0,0,160,80Z"/><path class="cls-2" d="M111.14,103.12,114.69,80H92.5V65c0-6.32,3.1-12.49,13-12.49h10.08V32.81a123.09,123.09,0,0,0-17.9-1.56c-18.28,0-30.22,11.07-30.22,31.13V80H47.19v23.12H67.5V159a81,81,0,0,0,25,0V103.12Z"/></g></g></svg>