<?xml version="1.0" encoding="UTF-8"?>
<svg id="Capa_2" data-name="Capa 2" xmlns="http://www.w3.org/2000/svg" viewBox="0 0 408.8 409.6">
  <defs>
    <style>
      .cls-1 {
        fill: #f5f5f5;
        stroke-width: 0px;
      }
    </style>
  </defs>
  <g id="Capa_1-2" data-name="Capa 1">
    <g>
      <path class="cls-1" d="M408.8,115.1v176.65c-.95,7.78-1.58,15.59-2.91,23.33-7.99,46.29-40.61,80.19-86.35,89.72-20.21,4.21-40.72,4.5-61.2,4.64-35.69.24-71.39.19-107.08.01-17.56-.08-35.11-.65-52.57-3.07-48.13-6.68-83.34-38.98-93.81-86.31C.57,300.56.3,280.71.14,260.88c-.24-29.69-.1-59.39-.12-89.09-.01-22.9-.22-45.82,2.54-68.6,2.54-20.93,8.92-40.54,21.75-57.62C46.13,16.54,76.46,4.21,111.56,1.35c6.88-.56,13.79-.9,20.68-1.35,48.22,0,96.45,0,144.67,0,1.58.17,3.15.47,4.73.5,11.6.2,23.15,1,34.52,3.31,45.06,9.14,74.8,35.15,87.44,79.85,2.91,10.29,3.99,20.87,5.19,31.44ZM204.93,372.1c23.85.38,47.68-.4,71.52-.85,11.28-.21,22.61-.69,33.76-3.02,29.58-6.18,48.99-23.24,56.98-52.74,3.77-13.9,4.22-28.19,4.43-42.38.49-33.43.49-66.87.38-100.3-.07-22.75.4-45.55-2.64-68.19-4.55-33.79-25.16-55.98-58.35-63.01-16.01-3.39-32.31-3.41-48.51-3.6-38.23-.43-76.46-.39-114.69-.01-15.27.15-30.61.44-45.78,3.01-31.85,5.39-52.86,25.23-60,56.81-3.2,14.14-3.53,28.56-3.66,42.89-.37,42.76-.35,85.52,0,128.28.11,13.27.49,26.62,3.02,39.76,5.83,30.34,22.96,50.29,53.23,58.3,12.86,3.4,26.07,3.97,39.21,4.22,23.7.46,47.4,1.23,71.12.84Z"/>
      <path class="cls-1" d="M204.68,310.34c-58.01-.1-105.47-47.75-105.42-105.84.05-57.99,47.73-105.59,105.74-105.55,58.16.03,105.86,47.93,105.65,106.07-.21,58.03-47.89,105.42-105.97,105.32ZM204.74,272.31c37.46.03,67.85-30.11,67.91-67.35.06-37.4-30.16-67.94-67.3-68.01-37.69-.07-68.04,30.08-68.06,67.59-.02,37.46,30.11,67.73,67.45,67.76Z"/>
      <path class="cls-1" d="M314.11,120.2c-13.94-.02-24.72-10.85-24.71-24.85,0-13.78,11.02-24.93,24.75-25.07,13.4-.14,25.04,11.38,25.16,24.9.12,13.77-11.23,25.04-25.2,25.02Z"/>
    </g>
  </g>
</svg>