<svg xmlns="http://www.w3.org/2000/svg" xmlns:xlink="http://www.w3.org/1999/xlink" viewBox="0 0 160 160"><defs><style>.cls-1{fill:url(#linear-gradient);}.cls-2{fill:url(#linear-gradient-2);}.cls-3{fill:url(#linear-gradient-3);}</style><linearGradient id="linear-gradient" x1="-654.75" y1="615.9" x2="-640.05" y2="601.21" gradientTransform="translate(6475.75 -5926.76) scale(9.89 9.88)" gradientUnits="userSpaceOnUse"><stop offset="0" stop-color="#ffd521"/><stop offset="0.05" stop-color="#ffd521"/><stop offset="0.5" stop-color="#f50000"/><stop offset="0.95" stop-color="#b900b4"/><stop offset="1" stop-color="#b900b4"/></linearGradient><linearGradient id="linear-gradient-2" x1="-616.62" y1="577.79" x2="-601.92" y2="563.09" gradientTransform="translate(6096.2 -5552.4) scale(9.88)" xlink:href="#linear-gradient"/><linearGradient id="linear-gradient-3" x1="-629.68" y1="590.86" x2="-614.98" y2="576.16" gradientTransform="translate(6224.59 -5682.3) scale(9.88 9.89)" xlink:href="#linear-gradient"/></defs><title>Asset 4</title><g id="Layer_2" data-name="Layer 2"><g id="Layer_1-2" data-name="Layer 1"><path class="cls-1" d="M132.31,37.3a9.61,9.61,0,1,0-9.61,9.59,9.61,9.61,0,0,0,9.61-9.59"/><path class="cls-2" d="M145.11,112.32c-.36,7.8-1.66,12-2.74,14.86a24.75,24.75,0,0,1-6,9.2,24.42,24.42,0,0,1-9.18,6c-2.82,1.1-7.07,2.4-14.87,2.78-8.44.37-10.93.45-32.32.45s-23.88-.08-32.32-.45c-7.8-.38-12-1.68-14.85-2.78a24.49,24.49,0,0,1-9.2-6,24.46,24.46,0,0,1-6-9.2c-1.08-2.82-2.4-7.06-2.74-14.86-.41-8.43-.49-11-.49-32.31s.08-23.9.49-32.34c.34-7.8,1.66-12,2.74-14.87a24.38,24.38,0,0,1,6-9.18,24.78,24.78,0,0,1,9.2-6c2.82-1.1,7-2.39,14.85-2.76,8.44-.37,10.95-.47,32.32-.47s23.88.1,32.32.47c7.8.37,12,1.66,14.87,2.76a24.71,24.71,0,0,1,9.18,6,24.67,24.67,0,0,1,6,9.18c1.08,2.84,2.38,7.07,2.74,14.87.39,8.44.49,10.95.49,32.34s-.1,23.88-.49,32.31ZM159.51,47c-.39-8.53-1.73-14.35-3.73-19.42a38.91,38.91,0,0,0-9.21-14.19A39.35,39.35,0,0,0,132.4,4.19c-5.09-2-10.89-3.33-19.42-3.7S101.73,0,80,0,55.53.08,47,.49a58.64,58.64,0,0,0-19.42,3.7,39.45,39.45,0,0,0-14.15,9.22A39.23,39.23,0,0,0,4.2,27.6C2.22,32.67.88,38.49.47,47S0,58.27,0,80s.09,24.44.47,33S2.22,127.31,4.2,132.4a39.16,39.16,0,0,0,9.23,14.17,39.35,39.35,0,0,0,14.15,9.23c5.11,2,10.91,3.32,19.42,3.71s11.27.49,33,.49,24.46-.09,33-.49,14.33-1.73,19.42-3.71a39.25,39.25,0,0,0,14.17-9.23,38.84,38.84,0,0,0,9.21-14.17c2-5.09,3.34-10.91,3.73-19.42s.49-11.25.49-33-.09-24.47-.49-33Z"/><path class="cls-3" d="M80,106.65A26.66,26.66,0,1,1,106.67,80,26.65,26.65,0,0,1,80,106.65ZM80,38.9A41.09,41.09,0,1,0,121.08,80,41.09,41.09,0,0,0,80,38.9Z"/></g></g></svg>