<?xml version="1.0" encoding="UTF-8"?>
<svg id="Capa_2" data-name="Capa 2" xmlns="http://www.w3.org/2000/svg" viewBox="0 0 415.28 415.11">
  <defs>
    <style>
      .cls-1 {
        fill: #f5f5f5;
        stroke-width: 0px;
      }
    </style>
  </defs>
  <g id="Capa_1-2" data-name="Capa 1">
    <path class="cls-1" d="M174.62.02c81.31-1.03,157.44,60.75,169.94,148.87,5.72,40.32-2.12,78.33-23.35,113.26-2.71,4.46-2.61,7,1.22,10.79,27.62,27.26,55.07,54.71,82.38,82.28,14.1,14.23,13.85,36.04-.13,49.82-13.73,13.54-35.34,13.5-49.43-.47-27.05-26.82-53.89-53.85-80.87-80.75-7.62-7.6-5.02-6.73-13.51-1.68-83.51,49.69-193.55,19.28-239.69-66.27C-25.87,168.58,8.08,61.62,97.07,17.47,120.91,5.64,146.27-.37,174.62.02ZM173.09,293.36c66.89-1.2,119.98-52.69,120.14-120.25.16-66.83-52.39-120.08-119.84-120.28-67-.2-120.49,52.74-120.42,120.26.06,66.98,52.87,119.07,120.12,120.28Z"/>
  </g>
</svg>