<?xml version="1.0" encoding="UTF-8"?>
<svg id="Capa_2" data-name="Capa 2" xmlns="http://www.w3.org/2000/svg" viewBox="0 0 332.6 415.6">
  <defs>
    <style>
      .cls-1 {
        fill: #f5f5f5;
        stroke-width: 0px;
      }
    </style>
  </defs>
  <g id="Capa_1-2" data-name="Capa 1">
    <g>
      <path class="cls-1" d="M330.05,134.21c-5.33-27.85-18.87-54.69-39.16-77.59-20.21-22.82-45.21-39.61-72.3-48.57-13.07-4.32-26.26-6.52-36.29-7.95l-.48-.07-.21-.03h-30.92l-.26.05-.59.1c-2.35.42-4.79.8-7.15,1.18-5.82.92-11.82,1.87-17.87,3.46-34.13,8.97-63.55,28.13-87.42,56.97C4.24,101.83-6.95,147.39,4.15,197.16c6.07,27.22,17.68,53.57,36.54,82.92,19.54,30.42,43.46,59.71,77.58,94.98,11.81,12.21,23.52,24.02,33.41,33.97,5.4,5.43,10.87,6.57,14.51,6.57s8.99-1.11,14.48-6.4c1.57-1.51,3.08-3.03,4.54-4.51.63-.63,1.25-1.27,1.88-1.9,27.03-27.03,58.09-58.82,84.57-93.95,25.15-33.36,41.43-62.63,51.26-92.14,9.8-29.43,12.13-56.42,7.13-82.51ZM286.03,204.27c-8.42,25.3-22.01,49.76-44.06,79.3-14.78,19.81-31.83,39.59-53.63,62.25-4.63,4.82-9.41,9.68-14.02,14.39-2.68,2.73-5.41,5.52-8.13,8.32-26.03-26.29-55.51-56.99-80.01-90.84-20.03-27.67-32.96-51.92-40.72-76.32-4.57-14.39-6.75-27.8-6.66-41.01.18-26.4,9.26-50.2,27.75-72.76,17.81-21.73,38.15-35.94,62.18-43.44,11.47-3.58,24.09-5.55,37.52-5.87,39.41.9,71.11,15.96,96.89,46.01,15.55,18.13,24.92,36.71,28.65,56.78,3.68,19.84,1.8,40.5-5.75,63.18Z"/>
      <path class="cls-1" d="M166.28,93.69h-.18c-21.24.05-41,8.25-55.65,23.09-14.55,14.73-22.54,34.42-22.5,55.44.04,21.4,8.53,41.3,23.91,56.05,14.55,13.95,34.2,21.96,53.91,21.96.45,0,.9,0,1.35-.01,20.72-.38,40.18-8.67,54.8-23.36,14.71-14.78,22.76-34.3,22.66-54.94-.15-20.85-8.17-40.4-22.59-55.07-14.68-14.93-34.46-23.15-55.7-23.15ZM205.67,172.25c-.1,21.25-18.16,39.2-39.44,39.21h-.25c-21.63-.13-39.21-17.97-39.18-39.76.04-21.56,17.79-39.1,39.59-39.1h.13c10.33.03,20.12,4.19,27.58,11.7,7.51,7.57,11.62,17.5,11.57,27.95Z"/>
    </g>
  </g>
</svg>