<?xml version="1.0" encoding="UTF-8"?>
<svg id="Capa_2" data-name="Capa 2" xmlns="http://www.w3.org/2000/svg" viewBox="0 0 439.26 415.11">
  <defs>
    <style>
      .cls-1 {
        fill: #f5f5f5;
        stroke-width: 0px;
      }
    </style>
  </defs>
  <g id="Capa_1-2" data-name="Capa 1">
    <path class="cls-1" d="M286.57.22h-4.85l-21.97-.22H7.23C3.24,0,0,3.24,0,7.23v40.04c0,43.91,30.99,68.1,87.26,68.1l199.31.38c21.07,0,38.14,17.08,38.14,38.15s-17.08,38.14-38.14,38.14H63.06c-3.26,0-6.1,2.21-6.9,5.37L3.29,406.25c-.54,2.13-.07,4.38,1.28,6.12,1.35,1.73,3.42,2.75,5.61,2.75h70.86c26.55,0,39.3-22.04,42.31-33.6l20.86-75.92h142.35c84.19,0,152.69-68.5,152.69-152.69S370.76.22,286.57.22Z"/>
  </g>
</svg>