<?xml version="1.0" encoding="UTF-8"?>
<svg id="Capa_2" data-name="Capa 2" xmlns="http://www.w3.org/2000/svg" viewBox="0 0 407.6 409.6">
  <defs>
    <style>
      .cls-1 {
        fill: #f5f5f5;
        stroke-width: 0px;
      }
    </style>
  </defs>
  <g id="Capa_1-2" data-name="Capa 1">
    <g>
      <path class="cls-1" d="M407.24,190.59c-1.25-22.37-6.22-44.19-14.78-64.86C359.59,46.36,280.19-4.07,194.81.26c-34.32,1.74-65.06,10.8-91.38,26.92C33.67,69.9-.52,132.72,1.8,213.89c.83,29.09,8.95,58.08,24.14,86.15,1.6,2.96,1.88,5.53.95,8.86-8,28.84-16.01,58.2-23.75,86.59l-2.13,7.79c-.09.31-.23.67-.37,1.04-.5,1.25-1.17,2.96.09,4.32.66.71,1.41.95,2.16.95.88,0,1.77-.33,2.5-.61.35-.13.7-.27,1.03-.35,28.68-7.51,62.7-16.43,97.51-25.66,2.74-.73,4.85-.5,7.31.77,28.9,14.99,60.07,22.48,95.28,22.89,2.84.26,6.68-.11,10.75-.49,2.1-.2,4.28-.4,6.46-.54,3.73-.23,7.48-.84,11.1-1.43l.74-.12c49.22-7.94,90.41-30.84,122.44-68.07,35.74-41.54,52.3-90.45,49.23-145.4ZM52.71,354.5c.98-3.6,1.95-7.21,2.92-10.82,3.49-12.94,7.1-26.32,10.9-39.4,1.2-4.12.7-7.32-1.72-11.04-14.25-21.9-22.85-46.25-25.58-72.39-3.38-32.4,2.06-62.94,16.19-90.77,24.43-48.14,63.11-78.23,114.96-89.43,64.88-14.01,129.69,11.13,169.16,65.62,17.24,23.8,27.39,50.36,30.17,78.94,4.85,49.86-9.6,93.7-42.95,130.31-27.14,29.8-61.68,47.56-102.65,52.79-8.25,1.05-14,1.44-17.55,1.18h-.07c-32.85-.24-61.71-8.15-88.22-24.17-2.33-1.41-4.48-2.09-6.75-2.09-1.14,0-2.32.17-3.57.51-14.73,4-29.76,7.9-44.29,11.66l-8.14,2.11c-.9.23-2.97.77-3.5.63-.14-.55.44-2.7.7-3.64Z"/>
      <path class="cls-1" d="M128.72,221.38c26.84,34.87,54.22,56.89,86.15,69.29,1.25.49,2.5.98,3.76,1.47,11.66,4.59,23.7,9.32,36.84,9.32.57,0,1.15,0,1.73-.03h1.19c.87,0,1.75.01,2.63,0,25.78-.41,44.77-17.78,47.24-43.23.37-3.81.14-8.5-4.97-11.04-2.4-1.19-4.79-2.39-7.18-3.59-10.82-5.43-22.01-11.04-33.39-15.8-6.74-2.83-9.47-2.08-13.89,3.83-4.76,6.37-9.86,12.4-14.67,18.02-2.4,2.8-5.09,3.41-8.73,1.97-28.91-11.4-51.88-31.13-68.28-58.65-2-3.35-1.82-5.83.63-8.84,3.19-3.92,6.24-8.04,9.19-12.02.87-1.18,1.74-2.35,2.62-3.53,3.02-4.05,3.43-8.42,1.24-13.38-2.06-4.67-4.05-9.46-5.97-14.1-.75-1.8-1.5-3.61-2.25-5.41-.83-1.98-1.65-3.97-2.47-5.96-1.79-4.34-3.64-8.83-5.59-13.19-1.55-3.48-3.79-7.1-8.63-7.55-3.47-.32-6.67-.53-9.78-.64-7.02-.24-12.87,2.13-17.82,7.25-17.89,18.46-22.31,40.8-13.13,66.39,5.49,15.31,15.02,28.37,23.52,39.41Z"/>
    </g>
  </g>
</svg>