<?xml version="1.0" encoding="UTF-8"?>
<svg id="Capa_2" data-name="Capa 2" xmlns="http://www.w3.org/2000/svg" viewBox="0 0 510.2 409.59">
  <defs>
    <style>
      .cls-1 {
        fill: #4c2818;
        stroke-width: 0px;
      }
    </style>
  </defs>
  <g id="Capa_1-2" data-name="Capa 1">
    <g>
      <path class="cls-1" d="M502.49,101.08c-34.19-33.01-72.39-58.24-113.54-75.01C348.05,9.41,303.11.66,255.37.05c-17.91-.35-36.46,1.1-56.71,4.44C125.05,16.64,60.6,49.28,7.1,101.51c-2.96,2.89-4.77,5.45-5.87,8.3-3.13,8.12-.17,17.36,7.19,22.48,3.19,2.22,6.86,3.31,10.55,3.31,4.79,0,9.6-1.84,13.43-5.42l2.97-2.78c7.05-6.61,14.33-13.44,22.03-19.5C124.91,54.8,202.29,31.97,287.42,40.07c43.64,4.15,85.7,17.68,125,40.21,22.49,12.9,44.05,29.33,64.08,48.84,4.73,4.61,10.55,6.86,16.39,6.34,5.43-.48,10.29-3.36,13.67-8.09,6.01-8.41,4.52-17.99-4.07-26.29Z"/>
      <path class="cls-1" d="M265.41,104.13c-40.3-1.91-80.26,5.66-118.77,22.51-30.73,13.43-58.19,32.16-81.62,55.66-5.67,5.69-7.38,12.27-5.08,19.55,2.2,6.97,7.15,11.45,14.3,12.95,8.87,1.87,15.09-2.76,19.53-7.01,44.57-42.67,98.76-64.67,161.07-65.39h0c13.95-.25,28.28,1.08,43.81,4.05,45.12,8.63,85.16,29.66,119,62.52,4.31,4.19,9.5,6.29,14.58,6.29s9.54-1.9,13.32-5.71c3.63-3.67,5.62-8.35,5.58-13.19-.04-5.23-2.4-10.41-6.67-14.59-49.19-48.23-109.44-74.35-179.06-77.65Z"/>
      <path class="cls-1" d="M254.64,207.84h-.05s-.05,0-.05,0c-11.14.5-23.01,1.22-34.74,3.87-31.62,7.15-58.92,22.06-81.14,44.3-7.83,7.84-8.09,19.18-.61,26.96,7.14,7.43,18.35,7.82,26.63.91.77-.64,1.48-1.33,2.17-2,.46-.44.92-.89,1.39-1.31,30.91-27.86,67.15-38.77,107.72-32.44,25.44,3.97,48.07,15.35,67.25,33.83,4.78,4.61,9.67,6.89,14.83,6.89,1.45,0,2.92-.18,4.41-.54,7.34-1.75,12.1-6.38,14.17-13.75,1.97-7.01.1-13.37-5.55-18.9-31.56-30.89-70.74-46.98-116.44-47.83Z"/>
      <path class="cls-1" d="M255.41,319.37h-.14c-12.42,0-24,4.74-32.64,13.36-8.49,8.47-13.15,19.76-13.14,31.8.03,24.81,20.41,45.03,45.42,45.06h.06c25.38,0,45.4-19.68,45.59-44.82.09-12-4.54-23.34-13.04-31.93-8.56-8.65-19.96-13.43-32.11-13.47Z"/>
    </g>
  </g>
</svg>