<?xml version="1.0" encoding="UTF-8"?>
<svg id="Capa_2" data-name="Capa 2" xmlns="http://www.w3.org/2000/svg" viewBox="0 0 416.2 415.6">
  <defs>
    <style>
      .cls-1 {
        fill: #f5f5f5;
        stroke-width: 0px;
      }
    </style>
  </defs>
  <g id="Capa_1-2" data-name="Capa 1">
    <path class="cls-1" d="M414.95,406.32l-157.23-228.83,26.4-30.68.21-.25c17.25-20.05,34.5-40.1,51.74-60.15,14.51-16.88,29.01-33.78,43.51-50.67l.71-.83,25.71-29.95,4.25-4.95h-52.76l-.9,1.04-122.37,142.22c-27.66-40.23-57.15-83.14-95.18-138.51-.06-.11-.13-.25-.2-.39-.13-.25-.25-.49-.38-.73l-1.12-2.06-.85-1.57H6.58l.94,3.73,1.22,4.88c.69,2.75,2.14,4.64,3.2,6.02l.08.1c.19.25.38.49.55.75,36.72,53.48,73.46,106.95,110.19,160.42l37.02,53.89L4.26,410.58l-4.26,4.96h15.09c3.04,0,6.01,0,8.93-.01h.81c2.52,0,4.99,0,7.43,0,5.8,0,10.22.02,14.32.08h.2c6.19,0,9.38-3.72,10.43-4.94,30.47-35.5,61.51-71.58,91.52-106.47l.95-1.1,10.04-11.67c6.37-7.41,12.75-14.81,19.13-22.21l1.23-1.42,3.25-3.77c32.84,47.76,66.75,97.08,100.04,145.63,1.01,1.47,4.09,5.96,11.01,5.96,24.79-.07,49.82-.07,74.02-.08h1.98c11.37,0,22.73,0,34.06-.02h.07c.3.04.81.09,1.42.09,2.89,0,5.36-1.2,7.15-3.46l1.79-2.27,1.37-1.73-1.25-1.82ZM81.31,39.91c2.89,0,5.81,0,8.75,0,8.22,0,14.46-.04,20.24-.13h.22c1.22,0,1.38,0,2.27,1.27,49.86,71.49,100.64,144.12,149.75,214.36l.37.53,35.99,51.48c16.14,23.09,32.28,46.18,48.42,69.27h-.26s-6.02,0-6.02,0h-6.66c-7.03,0-15.31,0-23.45.07-67.32-96.39-135.81-194.37-202.05-289.13l-.33-.47-33.05-47.28c1.93,0,3.86,0,5.8,0Z"/>
  </g>
</svg>