<?xml version="1.0" encoding="UTF-8"?>
<svg id="Capa_2" data-name="Capa 2" xmlns="http://www.w3.org/2000/svg" viewBox="0 0 393.54 443.41">
  <defs>
    <style>
      .cls-1 {
        fill: #4c2919;
        stroke-width: 0px;
      }
    </style>
  </defs>
  <g id="Capa_1-2" data-name="Capa 1">
    <g>
      <path class="cls-1" d="M310.12,299.4c.27.78.41,1.63.82,2.32,18.97,31.57,38.52,62.76,61.95,91.32,5.17,6.31,10.77,12.23,16.49,17.83-.5,2.58-2.44,3.48-4.06,4.52-11.35,7.33-23.46,7.72-35.96,3.67-11.66-3.78-21.33-10.81-30.19-19.03-1.45-1.35-2.48-3.16-3.56-4.58-2.46,1.52-2.74,3.27-3.55,4.68-11.68,20.26-28.93,33.12-51.53,38.91-3.77.97-7.61.93-11.43.54-3.44-.35-6.34-1.86-8.98-5.19,16.99-25.81,34.03-51.71,51.08-77.61l-.87-.59c-18.24,24.35-37.22,48.17-51.47,75.27-1.87-.97-1.57-3.11-3.23-4.49-6.86,3.11-13.97,6.23-21.4,8.49-28.24,8.6-56.98,9.77-86.06,5.69-17.77-2.5-34.94-7.02-50.75-15.78-15.42-8.54-27.5-20.23-34.92-36.54-6.3-13.84-5.38-27.17,1.77-40.27,6.51-11.91,16-20.77,28.17-26.75,1.9-.94,3.85-1.78,6.33-2.91-6.1-2.71-11.89-4.81-17.21-7.87-15.63-9-27.38-21.19-31.73-39.22-5.28-21.86,14.04-42.75,36.31-39.35,8.26,1.26,14.11,6.41,18.98,12.8,1.9,2.49,3.51,5.2,5.82,8.65,0-6.11.93-11.32.03-16.48-1.75-10.03.5-18.5,8.82-24.9.37-.29.62-.75,1.29-1.59-7.51-3.49-14.82-6.92-22.15-10.29-18.77-8.62-38.09-15.92-57.08-24.02-5.97-2.55-11.97-5.11-17.1-9.22-4.47-3.58-5.63-7.27-4.04-11.83,1.17-3.35,3.36-5.14,7.03-5.26,4.95-.17,9.58,1.09,14.14,2.71,16.09,5.71,30.92,13.99,45.71,22.36,14.79,8.37,29.27,17.25,43.62,26.35,2.53,1.61,4.51,1.74,7.28.62,16.5-6.66,33.87-9.77,51.43-11.87,14.09-1.69,28.23-2.22,42.39-.89,3.79.36,7.57.86,11.39,1.66-34.73-3.34-67.92,1.25-99.56,18.5,9.37,5.98,18.07,11.49,26.7,17.09,1.61,1.04,2.86.08,4.24-.27,28.94-7.43,57.16-3.77,85.04,5.41.26.09.42.48.94,1.11-8.19-.67-16.03-1.44-23.89-1.93-12.48-.78-24.97-1.36-37.41.51-4.43.66-8.87,1.47-12.82,5.24,14.72,9.68,29.44,18.79,44.98,27.09q-6.06,2.52-5.14,8.51c-11.14-7.11-21.65-14.48-33-20.58,2.16,3.12,5.2,5.24,8.19,7.36,10.36,7.32,21.44,13.43,32.79,19.08,2.38,1.19,4.73,1.36,7.26,1.11,18.1-1.78,35.9-5.24,53.55-9.56,1.87-.46,3.72-1.23,6.5-1.07-5.84,3.19-11.51,4.6-17.08,6.17-24.36,6.89-49.18,10.45-74.53,9.6-28.64-.96-55.69-7.55-80.05-23.3-.97-.63-2.01-1.22-3.11-1.56-4.3-1.35-6.86.54-6.79,5.09.06,3.36.91,6.65,2.22,9.7,8.65,20.11,19.22,39.17,32.35,56.71,4.71,6.29,10.98,11.13,17.05,16.09,1.02.83,2.28,1.41,2.62,3.06-9.19-4.72-17.27-11.07-25.11-18.02-4.73,3.39-9.43,6.52-13.26,10.74-8.04,8.85-7.83,17.51.6,25.95,5.4,5.41,12.02,8.98,18.91,11.93,30.41,13.05,62.11,17.03,94.88,13.14.82-.1,1.64-.29,2.45-.49.47-.11.92-.33,1.62-.59,1.55-6.53,2.91-13.19,4.95-19.7,7.87-25.16,24.49-41.43,49.46-49.4.47-.15.89-.43,1.31-.64,5.18-17.16,8.73-22.69,16.85-26.32,1.58.14,1.46,2.17,2.84,2.53l-.13-.13ZM90.5,263.78c-2.25-5.61-6.04-10.52-10.93-14.47-12.8-10.32-30.67-5.02-35.22,10.8-3.58,12.44-.22,23.84,7.66,33.72,13.46,16.87,31.65,25.44,52.63,28.65,4.23.65,8.5,1.01,12.76,1.5-5.03,1.3-10,1.09-14.96.67-3.77-.32-7.26.43-10.65,2.01-15.8,7.37-27.41,28.59-25.17,45.87,1.64,12.64,8.13,22.36,17.96,30.04,8.85,6.91,18.61,12.28,28.99,16.51,26.7,10.89,54.43,13.64,82.86,10.07,12.9-1.62,25.5-4.65,37.85-10.09-.63-7.75-.28-15.49.05-23.3-1.27,0-1.94-.1-2.57.01-21.17,3.92-42.4,3.9-63.65.84-16.89-2.43-33.34-6.47-48.57-14.46-6.52-3.42-12.65-7.43-17.14-13.47-5.6-7.52-5.87-15.44-.75-23.2,2.88-4.36,6.57-7.97,10.8-10.99,3.64-2.6,7.39-5.03,11.25-7.65-2.08-2.5-4.31-4.75-6.01-7.34-2.18-3.31-4.91-4.79-8.91-5.32-16.95-2.24-32.16-8.34-43.99-21.31-5.71-6.26-10.55-12.97-11.17-21.77-.46-6.52,1.22-12.35,7.13-16,5.81-3.59,11.83-3.99,17.96-.42,4.17,2.43,7.77,5.58,11.81,9.07ZM110.66,311.8c0-.9.12-1.27-.02-1.48-8.3-12.63-14.23-26.27-17.44-41.06-.31-1.41-1.09-2.41-2.2-3.19-3.73-2.61-7.64-4.63-12.4-4.61-6.77.03-10.56,3.27-11.31,9.98-.63,5.66.59,10.88,3.66,15.71,9.26,14.61,24.23,19.76,39.71,24.66ZM110.12,251.18c8.64-8.32,18.49-14.38,30.04-19.66-5.22-2.89-9.49-5.32-13.83-7.63-4.53-2.42-9.11-4.73-13.5-7-11.74,6.8-15.71,22.83-2.72,34.29Z"/>
      <path class="cls-1" d="M181.44,0c-4.56,4.59-9.6,8.7-14.18,13.3-13.47,13.53-23.59,28.99-26.44,48.23-3.37,22.75,2.51,43.03,17.97,60.13,10.05,11.12,22.98,14.06,37.42,11.2,7.93-1.57,15.09-5.09,22.26-8.68,17.37-8.7,35.6-10.2,54.49-6.36,22.04,4.48,27.64,23.24,26.74,38.29-.83,13.85-6.44,26.13-13.49,37.75-13.78,22.73-31.94,41.75-51.55,59.46-.42.38-.89,1.04-1.97.4,5.39-5.67,10.81-11.2,16.04-16.92,13.28-14.54,25.81-29.66,35.38-47.01,3.97-7.19,7.17-14.65,8.54-22.81,1.99-11.87-2.73-21.17-13.62-26.12-20.66-9.4-41.53-10.48-62.29-.5-21.51,10.34-50.43,7.2-67.54-19.84-8.96-14.17-14.51-29.59-15.13-46.48-.57-15.79,4.9-29.72,13.86-42.45,9.01-12.8,20.48-23.01,33.5-31.6Z"/>
      <path class="cls-1" d="M310.25,299.54c-.36-.91-.71-1.82-1.13-2.9,2.98-1.86,6.11-1.38,9.16-.78,5.51,1.08,10.36,3.73,14.7,7.14,19.66,15.44,35.03,34.55,47.4,56.13,5.74,10.01,10.38,20.51,12.44,31.96.92,5.11,1.14,10.26-.44,15.33-.34,1.09-.54,2.26-2.23,3.03-4.6-6.36-9.26-12.8-13.91-19.24-21.16-29.29-42.32-58.59-63.5-87.87-.77-1.06-1.34-2.32-2.63-2.93l.13.13Z"/>
    </g>
  </g>
</svg>